<mxfile host="Electron" modified="2023-12-28T14:59:07.187Z" agent="Mozilla/5.0 (X11; Linux x86_64) AppleWebKit/537.36 (KHTML, like Gecko) draw.io/21.6.1 Chrome/112.0.5615.204 Electron/24.6.1 Safari/537.36" etag="vnXAa78b2aagB6MDbqMJ" version="21.6.1" type="device">
  <diagram name="Page-1" id="OCD1pQ2lFyb5-pAs6mBr">
    <mxGraphModel dx="1273" dy="763" grid="1" gridSize="10" guides="1" tooltips="1" connect="1" arrows="1" fold="1" page="1" pageScale="1" pageWidth="850" pageHeight="1100" math="1" shadow="0">
      <root>
        <mxCell id="0" />
        <mxCell id="1" parent="0" />
        <mxCell id="sD0XBtN898RwaV4NvgBG-1" value="$$P_{0}$$" style="text;html=1;strokeColor=none;fillColor=none;align=center;verticalAlign=middle;whiteSpace=wrap;rounded=0;fontSize=14;" parent="1" vertex="1">
          <mxGeometry x="40" y="70" width="40" height="40" as="geometry" />
        </mxCell>
        <mxCell id="sD0XBtN898RwaV4NvgBG-2" value="$$P_{1}$$" style="text;html=1;strokeColor=none;fillColor=none;align=center;verticalAlign=middle;whiteSpace=wrap;rounded=0;fontSize=14;" parent="1" vertex="1">
          <mxGeometry x="40" y="110" width="40" height="40" as="geometry" />
        </mxCell>
        <mxCell id="sD0XBtN898RwaV4NvgBG-4" value="100ms" style="rounded=0;whiteSpace=wrap;html=1;fillColor=#d5e8d4;strokeColor=#82b366;" parent="1" vertex="1">
          <mxGeometry x="80" y="78.57" width="40" height="30" as="geometry" />
        </mxCell>
        <mxCell id="sD0XBtN898RwaV4NvgBG-5" value="100ms" style="rounded=0;whiteSpace=wrap;html=1;fillColor=#d5e8d4;strokeColor=#82b366;" parent="1" vertex="1">
          <mxGeometry x="130" y="80" width="40" height="30" as="geometry" />
        </mxCell>
        <mxCell id="sD0XBtN898RwaV4NvgBG-6" value="100ms" style="rounded=0;whiteSpace=wrap;html=1;fillColor=#fff2cc;strokeColor=#d6b656;" parent="1" vertex="1">
          <mxGeometry x="180" y="80" width="40" height="30" as="geometry" />
        </mxCell>
        <mxCell id="sD0XBtN898RwaV4NvgBG-8" value="200ms" style="rounded=0;whiteSpace=wrap;html=1;fillColor=#d5e8d4;strokeColor=#82b366;" parent="1" vertex="1">
          <mxGeometry x="80" y="117.14" width="80" height="30" as="geometry" />
        </mxCell>
        <mxCell id="sD0XBtN898RwaV4NvgBG-13" value="75ms" style="rounded=0;whiteSpace=wrap;html=1;fillColor=#d5e8d4;strokeColor=#82b366;" parent="1" vertex="1">
          <mxGeometry x="80" y="160" width="30" height="30" as="geometry" />
        </mxCell>
        <mxCell id="sD0XBtN898RwaV4NvgBG-14" value="$$P_{2}$$" style="text;html=1;strokeColor=none;fillColor=none;align=center;verticalAlign=middle;whiteSpace=wrap;rounded=0;fontSize=14;" parent="1" vertex="1">
          <mxGeometry x="40" y="150" width="40" height="40" as="geometry" />
        </mxCell>
        <mxCell id="sD0XBtN898RwaV4NvgBG-15" value="75ms" style="rounded=0;whiteSpace=wrap;html=1;fillColor=#d5e8d4;strokeColor=#82b366;" parent="1" vertex="1">
          <mxGeometry x="120" y="160" width="30" height="30" as="geometry" />
        </mxCell>
        <mxCell id="sD0XBtN898RwaV4NvgBG-16" value="75ms" style="rounded=0;whiteSpace=wrap;html=1;fillColor=#fff2cc;strokeColor=#d6b656;" parent="1" vertex="1">
          <mxGeometry x="160" y="160" width="30" height="30" as="geometry" />
        </mxCell>
        <mxCell id="sD0XBtN898RwaV4NvgBG-19" value="150ms" style="rounded=0;whiteSpace=wrap;html=1;fillColor=#d5e8d4;strokeColor=#82b366;" parent="1" vertex="1">
          <mxGeometry x="80" y="200" width="60" height="30" as="geometry" />
        </mxCell>
        <mxCell id="sD0XBtN898RwaV4NvgBG-20" value="200ms" style="rounded=0;whiteSpace=wrap;html=1;fillColor=#d5e8d4;strokeColor=#82b366;" parent="1" vertex="1">
          <mxGeometry x="170" y="120" width="80" height="30" as="geometry" />
        </mxCell>
        <mxCell id="sD0XBtN898RwaV4NvgBG-21" value="200ms" style="rounded=0;whiteSpace=wrap;html=1;fillColor=#fff2cc;strokeColor=#d6b656;" parent="1" vertex="1">
          <mxGeometry x="260" y="120" width="70" height="30" as="geometry" />
        </mxCell>
        <mxCell id="sD0XBtN898RwaV4NvgBG-24" value="150ms" style="rounded=0;whiteSpace=wrap;html=1;fillColor=#d5e8d4;strokeColor=#82b366;" parent="1" vertex="1">
          <mxGeometry x="150" y="200" width="60" height="30" as="geometry" />
        </mxCell>
        <mxCell id="sD0XBtN898RwaV4NvgBG-25" value="150ms" style="rounded=0;whiteSpace=wrap;html=1;fillColor=#fff2cc;strokeColor=#d6b656;" parent="1" vertex="1">
          <mxGeometry x="220" y="200" width="60" height="30" as="geometry" />
        </mxCell>
        <mxCell id="sD0XBtN898RwaV4NvgBG-28" value="$$P_{3}$$" style="text;html=1;strokeColor=none;fillColor=none;align=center;verticalAlign=middle;whiteSpace=wrap;rounded=0;fontSize=14;" parent="1" vertex="1">
          <mxGeometry x="40" y="190" width="40" height="40" as="geometry" />
        </mxCell>
        <mxCell id="sD0XBtN898RwaV4NvgBG-29" value="" style="endArrow=classic;html=1;rounded=0;" parent="1" edge="1">
          <mxGeometry width="50" height="50" relative="1" as="geometry">
            <mxPoint x="80" y="240" as="sourcePoint" />
            <mxPoint x="360" y="240" as="targetPoint" />
          </mxGeometry>
        </mxCell>
        <mxCell id="sD0XBtN898RwaV4NvgBG-30" value="execution progress" style="text;html=1;strokeColor=none;fillColor=none;align=center;verticalAlign=middle;whiteSpace=wrap;rounded=0;fontStyle=2" parent="1" vertex="1">
          <mxGeometry x="233" y="240" width="120" height="30" as="geometry" />
        </mxCell>
        <mxCell id="sD0XBtN898RwaV4NvgBG-31" value="&lt;font style=&quot;font-size: 14px;&quot;&gt;Total load and makespan&lt;/font&gt;" style="text;html=1;strokeColor=none;fillColor=none;align=center;verticalAlign=middle;whiteSpace=wrap;rounded=0;fontStyle=1" parent="1" vertex="1">
          <mxGeometry x="80" y="280" width="180" height="30" as="geometry" />
        </mxCell>
        <mxCell id="sD0XBtN898RwaV4NvgBG-61" value="Makespan (\(C\)): \(600\)" style="text;html=1;strokeColor=none;fillColor=none;align=left;verticalAlign=middle;whiteSpace=wrap;rounded=0;" parent="1" vertex="1">
          <mxGeometry x="640" y="80" width="240" height="30" as="geometry" />
        </mxCell>
        <mxCell id="dyOHYiIMp45q6dB9HG6w-65" value="&lt;font style=&quot;font-size: 14px;&quot;&gt;Given task distribution&lt;/font&gt;" style="text;html=1;strokeColor=none;fillColor=none;align=center;verticalAlign=middle;whiteSpace=wrap;rounded=0;fontStyle=1" parent="1" vertex="1">
          <mxGeometry x="80" y="40" width="170" height="30" as="geometry" />
        </mxCell>
        <mxCell id="dyOHYiIMp45q6dB9HG6w-67" value="\(L_{0} = 100 + 100 + 100 = 300\)" style="text;html=1;strokeColor=none;fillColor=none;align=left;verticalAlign=middle;whiteSpace=wrap;rounded=0;" parent="1" vertex="1">
          <mxGeometry x="400" y="80" width="260" height="27.14" as="geometry" />
        </mxCell>
        <mxCell id="dyOHYiIMp45q6dB9HG6w-69" value="\(L_{1} = 200 + 200 + 200 = 600\)" style="text;html=1;strokeColor=none;fillColor=none;align=left;verticalAlign=middle;whiteSpace=wrap;rounded=0;" parent="1" vertex="1">
          <mxGeometry x="400" y="120" width="260" height="27.14" as="geometry" />
        </mxCell>
        <mxCell id="dyOHYiIMp45q6dB9HG6w-70" value="\(L_{2} = 75 + 75 + 75 = 225\)" style="text;html=1;strokeColor=none;fillColor=none;align=left;verticalAlign=middle;whiteSpace=wrap;rounded=0;" parent="1" vertex="1">
          <mxGeometry x="400" y="160" width="260" height="27.14" as="geometry" />
        </mxCell>
        <mxCell id="dyOHYiIMp45q6dB9HG6w-71" value="\(L_{3} = 150 + 150 + 150 = 450\)" style="text;html=1;strokeColor=none;fillColor=none;align=left;verticalAlign=middle;whiteSpace=wrap;rounded=0;" parent="1" vertex="1">
          <mxGeometry x="401.5" y="200" width="260" height="27.14" as="geometry" />
        </mxCell>
        <mxCell id="EQBirqDwtUEzLjIFXrc7-1" value="Average load (\(L_{avg}\)): \(393.75\) ms" style="text;html=1;strokeColor=none;fillColor=none;align=left;verticalAlign=middle;whiteSpace=wrap;rounded=0;" vertex="1" parent="1">
          <mxGeometry x="640" y="118.57" width="240" height="30" as="geometry" />
        </mxCell>
        <mxCell id="EQBirqDwtUEzLjIFXrc7-2" value="$$P_{0}$$" style="text;html=1;strokeColor=none;fillColor=none;align=center;verticalAlign=middle;whiteSpace=wrap;rounded=0;fontSize=14;" vertex="1" parent="1">
          <mxGeometry x="598.5" y="210" width="40" height="40" as="geometry" />
        </mxCell>
        <mxCell id="EQBirqDwtUEzLjIFXrc7-3" value="$$P_{1}$$" style="text;html=1;strokeColor=none;fillColor=none;align=center;verticalAlign=middle;whiteSpace=wrap;rounded=0;fontSize=14;" vertex="1" parent="1">
          <mxGeometry x="598.5" y="250" width="40" height="40" as="geometry" />
        </mxCell>
        <mxCell id="EQBirqDwtUEzLjIFXrc7-4" value="300" style="rounded=0;whiteSpace=wrap;html=1;fillColor=#cdeb8b;strokeColor=#36393d;" vertex="1" parent="1">
          <mxGeometry x="638.5" y="220" width="121.5" height="20" as="geometry" />
        </mxCell>
        <mxCell id="EQBirqDwtUEzLjIFXrc7-5" value="$$P_{2}$$" style="text;html=1;strokeColor=none;fillColor=none;align=center;verticalAlign=middle;whiteSpace=wrap;rounded=0;fontSize=14;" vertex="1" parent="1">
          <mxGeometry x="598.5" y="290" width="40" height="40" as="geometry" />
        </mxCell>
        <mxCell id="EQBirqDwtUEzLjIFXrc7-6" value="$$P_{3}$$" style="text;html=1;strokeColor=none;fillColor=none;align=center;verticalAlign=middle;whiteSpace=wrap;rounded=0;fontSize=14;" vertex="1" parent="1">
          <mxGeometry x="598.5" y="330" width="40" height="40" as="geometry" />
        </mxCell>
        <mxCell id="EQBirqDwtUEzLjIFXrc7-7" value="" style="endArrow=classic;html=1;rounded=0;entryX=1;entryY=0;entryDx=0;entryDy=0;" edge="1" parent="1" target="EQBirqDwtUEzLjIFXrc7-12">
          <mxGeometry width="50" height="50" relative="1" as="geometry">
            <mxPoint x="638.5" y="370" as="sourcePoint" />
            <mxPoint x="1038.5" y="370" as="targetPoint" />
          </mxGeometry>
        </mxCell>
        <mxCell id="EQBirqDwtUEzLjIFXrc7-8" value="600" style="rounded=0;whiteSpace=wrap;html=1;fillColor=#cdeb8b;strokeColor=#36393d;" vertex="1" parent="1">
          <mxGeometry x="638.5" y="260" width="241.5" height="20" as="geometry" />
        </mxCell>
        <mxCell id="EQBirqDwtUEzLjIFXrc7-9" value="225" style="rounded=0;whiteSpace=wrap;html=1;fillColor=#cdeb8b;strokeColor=#36393d;" vertex="1" parent="1">
          <mxGeometry x="638.5" y="300" width="91.5" height="20" as="geometry" />
        </mxCell>
        <mxCell id="EQBirqDwtUEzLjIFXrc7-10" value="450" style="rounded=0;whiteSpace=wrap;html=1;fillColor=#cdeb8b;strokeColor=#36393d;" vertex="1" parent="1">
          <mxGeometry x="638.5" y="340" width="181.5" height="20" as="geometry" />
        </mxCell>
        <mxCell id="EQBirqDwtUEzLjIFXrc7-11" value="" style="endArrow=classic;html=1;rounded=0;exitX=1;exitY=1;exitDx=0;exitDy=0;" edge="1" parent="1" source="EQBirqDwtUEzLjIFXrc7-6">
          <mxGeometry width="50" height="50" relative="1" as="geometry">
            <mxPoint x="648.5" y="380" as="sourcePoint" />
            <mxPoint x="638.5" y="170" as="targetPoint" />
          </mxGeometry>
        </mxCell>
        <mxCell id="EQBirqDwtUEzLjIFXrc7-12" value="execution time" style="text;html=1;strokeColor=none;fillColor=none;align=center;verticalAlign=middle;whiteSpace=wrap;rounded=0;fontStyle=2" vertex="1" parent="1">
          <mxGeometry x="806.5" y="370" width="120" height="30" as="geometry" />
        </mxCell>
        <mxCell id="EQBirqDwtUEzLjIFXrc7-13" value="" style="group" vertex="1" connectable="0" parent="1">
          <mxGeometry x="800" y="165" width="53" height="210" as="geometry" />
        </mxCell>
        <mxCell id="EQBirqDwtUEzLjIFXrc7-14" value="" style="endArrow=none;dashed=1;html=1;dashPattern=1 3;strokeWidth=2;rounded=0;" edge="1" parent="EQBirqDwtUEzLjIFXrc7-13">
          <mxGeometry width="50" height="50" relative="1" as="geometry">
            <mxPoint y="210" as="sourcePoint" />
            <mxPoint as="targetPoint" />
          </mxGeometry>
        </mxCell>
        <mxCell id="EQBirqDwtUEzLjIFXrc7-15" value="\(L_{avg}\)" style="text;html=1;strokeColor=none;fillColor=none;align=left;verticalAlign=middle;whiteSpace=wrap;rounded=0;" vertex="1" parent="EQBirqDwtUEzLjIFXrc7-13">
          <mxGeometry x="3" width="50" height="30" as="geometry" />
        </mxCell>
        <mxCell id="EQBirqDwtUEzLjIFXrc7-16" value="~93.75" style="rounded=0;whiteSpace=wrap;html=1;fillColor=#ffff88;strokeColor=#36393d;" vertex="1" parent="1">
          <mxGeometry x="760" y="220" width="40" height="20" as="geometry" />
        </mxCell>
        <mxCell id="EQBirqDwtUEzLjIFXrc7-17" value="~168.75" style="rounded=0;whiteSpace=wrap;html=1;fillColor=#ffff88;strokeColor=#36393d;" vertex="1" parent="1">
          <mxGeometry x="730" y="300" width="70" height="20" as="geometry" />
        </mxCell>
        <mxCell id="EQBirqDwtUEzLjIFXrc7-18" value="\(k_{0} \approx 1\)" style="text;html=1;strokeColor=none;fillColor=none;align=left;verticalAlign=middle;whiteSpace=wrap;rounded=0;" vertex="1" parent="1">
          <mxGeometry x="926.5" y="212.86" width="100" height="27.14" as="geometry" />
        </mxCell>
        <mxCell id="EQBirqDwtUEzLjIFXrc7-19" value="\(k_{2} \approx 1\)" style="text;html=1;strokeColor=none;fillColor=none;align=left;verticalAlign=middle;whiteSpace=wrap;rounded=0;" vertex="1" parent="1">
          <mxGeometry x="926.5" y="254.29000000000002" width="100" height="27.14" as="geometry" />
        </mxCell>
        <mxCell id="EQBirqDwtUEzLjIFXrc7-20" value="\(k_{3} \approx 2\)" style="text;html=1;align=left;verticalAlign=middle;whiteSpace=wrap;rounded=0;" vertex="1" parent="1">
          <mxGeometry x="926.5" y="292.86" width="100" height="27.14" as="geometry" />
        </mxCell>
        <mxCell id="EQBirqDwtUEzLjIFXrc7-21" value="\(k_{4} \approx 0\)" style="text;html=1;strokeColor=none;fillColor=none;align=left;verticalAlign=middle;whiteSpace=wrap;rounded=0;" vertex="1" parent="1">
          <mxGeometry x="926.5" y="332.86" width="100" height="27.14" as="geometry" />
        </mxCell>
        <mxCell id="EQBirqDwtUEzLjIFXrc7-22" value="&lt;font style=&quot;font-size: 14px;&quot;&gt;Variant 1: processors with the same speed, tasks are non-uniform&lt;/font&gt;" style="text;html=1;strokeColor=none;fillColor=none;align=center;verticalAlign=middle;whiteSpace=wrap;rounded=0;fontStyle=1" vertex="1" parent="1">
          <mxGeometry x="40" y="440" width="450" height="40" as="geometry" />
        </mxCell>
        <mxCell id="EQBirqDwtUEzLjIFXrc7-23" value="&lt;font style=&quot;font-size: 14px;&quot;&gt;Variant 2: processors with different speeds, tasks are uniform&lt;/font&gt;" style="text;html=1;strokeColor=none;fillColor=none;align=center;verticalAlign=middle;whiteSpace=wrap;rounded=0;fontStyle=1" vertex="1" parent="1">
          <mxGeometry x="40" y="600" width="420" height="40" as="geometry" />
        </mxCell>
        <mxCell id="EQBirqDwtUEzLjIFXrc7-24" value="&lt;font style=&quot;font-size: 14px;&quot;&gt;Variant 3: processors with different speeds, tasks are non-uniform&lt;/font&gt;" style="text;html=1;strokeColor=none;fillColor=none;align=center;verticalAlign=middle;whiteSpace=wrap;rounded=0;fontStyle=1" vertex="1" parent="1">
          <mxGeometry x="40" y="800" width="450" height="40" as="geometry" />
        </mxCell>
        <mxCell id="EQBirqDwtUEzLjIFXrc7-25" value="Speed-factor matrix" style="text;html=1;strokeColor=none;fillColor=none;align=left;verticalAlign=middle;whiteSpace=wrap;rounded=0;" vertex="1" parent="1">
          <mxGeometry x="518.5" y="600" width="120" height="27.14" as="geometry" />
        </mxCell>
        <mxCell id="EQBirqDwtUEzLjIFXrc7-26" value="Distance matrix" style="text;html=1;strokeColor=none;fillColor=none;align=left;verticalAlign=middle;whiteSpace=wrap;rounded=0;" vertex="1" parent="1">
          <mxGeometry x="780" y="600" width="120" height="27.14" as="geometry" />
        </mxCell>
        <mxCell id="EQBirqDwtUEzLjIFXrc7-27" value="0" style="text;html=1;strokeColor=none;fillColor=none;align=center;verticalAlign=middle;whiteSpace=wrap;rounded=0;fontSize=14;" vertex="1" parent="1">
          <mxGeometry x="518.5" y="640" width="31.5" height="30" as="geometry" />
        </mxCell>
        <mxCell id="EQBirqDwtUEzLjIFXrc7-28" value="1.0" style="text;html=1;strokeColor=none;fillColor=none;align=center;verticalAlign=middle;whiteSpace=wrap;rounded=0;fontSize=14;" vertex="1" parent="1">
          <mxGeometry x="560" y="640" width="31.5" height="30" as="geometry" />
        </mxCell>
        <mxCell id="EQBirqDwtUEzLjIFXrc7-29" value="-0.25" style="text;html=1;strokeColor=none;fillColor=none;align=center;verticalAlign=middle;whiteSpace=wrap;rounded=0;fontSize=14;" vertex="1" parent="1">
          <mxGeometry x="598.5" y="640" width="31.5" height="30" as="geometry" />
        </mxCell>
        <mxCell id="EQBirqDwtUEzLjIFXrc7-30" value="0.5" style="text;html=1;strokeColor=none;fillColor=none;align=center;verticalAlign=middle;whiteSpace=wrap;rounded=0;fontSize=14;" vertex="1" parent="1">
          <mxGeometry x="640" y="640" width="31.5" height="30" as="geometry" />
        </mxCell>
        <mxCell id="EQBirqDwtUEzLjIFXrc7-31" value="-1.0" style="text;html=1;strokeColor=none;fillColor=none;align=center;verticalAlign=middle;whiteSpace=wrap;rounded=0;fontSize=14;" vertex="1" parent="1">
          <mxGeometry x="518.5" y="670" width="31.5" height="30" as="geometry" />
        </mxCell>
        <mxCell id="EQBirqDwtUEzLjIFXrc7-32" value="0" style="text;html=1;strokeColor=none;fillColor=none;align=center;verticalAlign=middle;whiteSpace=wrap;rounded=0;fontSize=14;" vertex="1" parent="1">
          <mxGeometry x="560" y="670" width="31.5" height="30" as="geometry" />
        </mxCell>
        <mxCell id="EQBirqDwtUEzLjIFXrc7-33" value="-0.625" style="text;html=1;strokeColor=none;fillColor=none;align=center;verticalAlign=middle;whiteSpace=wrap;rounded=0;fontSize=14;" vertex="1" parent="1">
          <mxGeometry x="598.5" y="670" width="31.5" height="30" as="geometry" />
        </mxCell>
        <mxCell id="EQBirqDwtUEzLjIFXrc7-34" value="-0.25" style="text;html=1;strokeColor=none;fillColor=none;align=center;verticalAlign=middle;whiteSpace=wrap;rounded=0;fontSize=14;" vertex="1" parent="1">
          <mxGeometry x="640" y="670" width="31.5" height="30" as="geometry" />
        </mxCell>
        <mxCell id="EQBirqDwtUEzLjIFXrc7-35" value="0.25" style="text;html=1;strokeColor=none;fillColor=none;align=center;verticalAlign=middle;whiteSpace=wrap;rounded=0;fontSize=14;" vertex="1" parent="1">
          <mxGeometry x="518.5" y="700" width="31.5" height="30" as="geometry" />
        </mxCell>
        <mxCell id="EQBirqDwtUEzLjIFXrc7-36" value="5/3" style="text;html=1;strokeColor=none;fillColor=none;align=center;verticalAlign=middle;whiteSpace=wrap;rounded=0;fontSize=14;" vertex="1" parent="1">
          <mxGeometry x="560" y="700" width="31.5" height="30" as="geometry" />
        </mxCell>
        <mxCell id="EQBirqDwtUEzLjIFXrc7-37" value="0" style="text;html=1;strokeColor=none;fillColor=none;align=center;verticalAlign=middle;whiteSpace=wrap;rounded=0;fontSize=14;" vertex="1" parent="1">
          <mxGeometry x="598.5" y="700" width="31.5" height="30" as="geometry" />
        </mxCell>
        <mxCell id="EQBirqDwtUEzLjIFXrc7-38" value="1.0" style="text;html=1;strokeColor=none;fillColor=none;align=center;verticalAlign=middle;whiteSpace=wrap;rounded=0;fontSize=14;" vertex="1" parent="1">
          <mxGeometry x="640" y="700" width="31.5" height="30" as="geometry" />
        </mxCell>
        <mxCell id="EQBirqDwtUEzLjIFXrc7-39" value="-1/3" style="text;html=1;strokeColor=none;fillColor=none;align=center;verticalAlign=middle;whiteSpace=wrap;rounded=0;fontSize=14;" vertex="1" parent="1">
          <mxGeometry x="518.5" y="730" width="31.5" height="30" as="geometry" />
        </mxCell>
        <mxCell id="EQBirqDwtUEzLjIFXrc7-40" value="1/3" style="text;html=1;strokeColor=none;fillColor=none;align=center;verticalAlign=middle;whiteSpace=wrap;rounded=0;fontSize=14;" vertex="1" parent="1">
          <mxGeometry x="560" y="730" width="31.5" height="30" as="geometry" />
        </mxCell>
        <mxCell id="EQBirqDwtUEzLjIFXrc7-41" value="-0.5" style="text;html=1;strokeColor=none;fillColor=none;align=center;verticalAlign=middle;whiteSpace=wrap;rounded=0;fontSize=14;" vertex="1" parent="1">
          <mxGeometry x="598.5" y="730" width="31.5" height="30" as="geometry" />
        </mxCell>
        <mxCell id="EQBirqDwtUEzLjIFXrc7-42" value="0" style="text;html=1;strokeColor=none;fillColor=none;align=center;verticalAlign=middle;whiteSpace=wrap;rounded=0;fontSize=14;" vertex="1" parent="1">
          <mxGeometry x="640" y="730" width="31.5" height="30" as="geometry" />
        </mxCell>
        <mxCell id="EQBirqDwtUEzLjIFXrc7-43" value="0" style="text;html=1;strokeColor=none;fillColor=none;align=center;verticalAlign=middle;whiteSpace=wrap;rounded=0;fontSize=14;" vertex="1" parent="1">
          <mxGeometry x="760" y="640" width="31.5" height="30" as="geometry" />
        </mxCell>
        <mxCell id="EQBirqDwtUEzLjIFXrc7-44" value="10" style="text;html=1;strokeColor=none;fillColor=none;align=center;verticalAlign=middle;whiteSpace=wrap;rounded=0;fontSize=14;" vertex="1" parent="1">
          <mxGeometry x="801.5" y="640" width="31.5" height="30" as="geometry" />
        </mxCell>
        <mxCell id="EQBirqDwtUEzLjIFXrc7-45" value="25" style="text;html=1;strokeColor=none;fillColor=none;align=center;verticalAlign=middle;whiteSpace=wrap;rounded=0;fontSize=14;" vertex="1" parent="1">
          <mxGeometry x="840" y="640" width="31.5" height="30" as="geometry" />
        </mxCell>
        <mxCell id="EQBirqDwtUEzLjIFXrc7-46" value="25" style="text;html=1;strokeColor=none;fillColor=none;align=center;verticalAlign=middle;whiteSpace=wrap;rounded=0;fontSize=14;" vertex="1" parent="1">
          <mxGeometry x="881.5" y="640" width="31.5" height="30" as="geometry" />
        </mxCell>
        <mxCell id="EQBirqDwtUEzLjIFXrc7-47" value="10" style="text;html=1;strokeColor=none;fillColor=none;align=center;verticalAlign=middle;whiteSpace=wrap;rounded=0;fontSize=14;" vertex="1" parent="1">
          <mxGeometry x="760" y="670" width="31.5" height="30" as="geometry" />
        </mxCell>
        <mxCell id="EQBirqDwtUEzLjIFXrc7-48" value="0" style="text;html=1;strokeColor=none;fillColor=none;align=center;verticalAlign=middle;whiteSpace=wrap;rounded=0;fontSize=14;" vertex="1" parent="1">
          <mxGeometry x="801.5" y="670" width="31.5" height="30" as="geometry" />
        </mxCell>
        <mxCell id="EQBirqDwtUEzLjIFXrc7-49" value="25" style="text;html=1;strokeColor=none;fillColor=none;align=center;verticalAlign=middle;whiteSpace=wrap;rounded=0;fontSize=14;" vertex="1" parent="1">
          <mxGeometry x="840" y="670" width="31.5" height="30" as="geometry" />
        </mxCell>
        <mxCell id="EQBirqDwtUEzLjIFXrc7-50" value="25" style="text;html=1;strokeColor=none;fillColor=none;align=center;verticalAlign=middle;whiteSpace=wrap;rounded=0;fontSize=14;" vertex="1" parent="1">
          <mxGeometry x="881.5" y="670" width="31.5" height="30" as="geometry" />
        </mxCell>
        <mxCell id="EQBirqDwtUEzLjIFXrc7-51" value="25" style="text;html=1;strokeColor=none;fillColor=none;align=center;verticalAlign=middle;whiteSpace=wrap;rounded=0;fontSize=14;" vertex="1" parent="1">
          <mxGeometry x="760" y="700" width="31.5" height="30" as="geometry" />
        </mxCell>
        <mxCell id="EQBirqDwtUEzLjIFXrc7-52" value="25" style="text;html=1;strokeColor=none;fillColor=none;align=center;verticalAlign=middle;whiteSpace=wrap;rounded=0;fontSize=14;" vertex="1" parent="1">
          <mxGeometry x="801.5" y="700" width="31.5" height="30" as="geometry" />
        </mxCell>
        <mxCell id="EQBirqDwtUEzLjIFXrc7-53" value="0" style="text;html=1;strokeColor=none;fillColor=none;align=center;verticalAlign=middle;whiteSpace=wrap;rounded=0;fontSize=14;" vertex="1" parent="1">
          <mxGeometry x="840" y="700" width="31.5" height="30" as="geometry" />
        </mxCell>
        <mxCell id="EQBirqDwtUEzLjIFXrc7-54" value="10" style="text;html=1;strokeColor=none;fillColor=none;align=center;verticalAlign=middle;whiteSpace=wrap;rounded=0;fontSize=14;" vertex="1" parent="1">
          <mxGeometry x="881.5" y="700" width="31.5" height="30" as="geometry" />
        </mxCell>
        <mxCell id="EQBirqDwtUEzLjIFXrc7-55" value="25" style="text;html=1;strokeColor=none;fillColor=none;align=center;verticalAlign=middle;whiteSpace=wrap;rounded=0;fontSize=14;" vertex="1" parent="1">
          <mxGeometry x="760" y="730" width="31.5" height="30" as="geometry" />
        </mxCell>
        <mxCell id="EQBirqDwtUEzLjIFXrc7-56" value="25" style="text;html=1;strokeColor=none;fillColor=none;align=center;verticalAlign=middle;whiteSpace=wrap;rounded=0;fontSize=14;" vertex="1" parent="1">
          <mxGeometry x="801.5" y="730" width="31.5" height="30" as="geometry" />
        </mxCell>
        <mxCell id="EQBirqDwtUEzLjIFXrc7-57" value="10" style="text;html=1;strokeColor=none;fillColor=none;align=center;verticalAlign=middle;whiteSpace=wrap;rounded=0;fontSize=14;" vertex="1" parent="1">
          <mxGeometry x="840" y="730" width="31.5" height="30" as="geometry" />
        </mxCell>
        <mxCell id="EQBirqDwtUEzLjIFXrc7-58" value="0" style="text;html=1;strokeColor=none;fillColor=none;align=center;verticalAlign=middle;whiteSpace=wrap;rounded=0;fontSize=14;" vertex="1" parent="1">
          <mxGeometry x="881.5" y="730" width="31.5" height="30" as="geometry" />
        </mxCell>
        <mxCell id="EQBirqDwtUEzLjIFXrc7-59" value="100ms" style="rounded=0;whiteSpace=wrap;html=1;fillColor=#d5e8d4;strokeColor=#82b366;" vertex="1" parent="1">
          <mxGeometry x="160" y="480" width="40" height="30" as="geometry" />
        </mxCell>
        <mxCell id="EQBirqDwtUEzLjIFXrc7-60" value="75ms" style="rounded=0;whiteSpace=wrap;html=1;fillColor=#d5e8d4;strokeColor=#82b366;" vertex="1" parent="1">
          <mxGeometry x="300" y="480" width="30" height="30" as="geometry" />
        </mxCell>
        <mxCell id="EQBirqDwtUEzLjIFXrc7-61" value="200ms" style="rounded=0;whiteSpace=wrap;html=1;fillColor=#d5e8d4;strokeColor=#82b366;" vertex="1" parent="1">
          <mxGeometry x="210" y="480" width="80" height="30" as="geometry" />
        </mxCell>
        <mxCell id="EQBirqDwtUEzLjIFXrc7-62" value="150ms" style="rounded=0;whiteSpace=wrap;html=1;fillColor=#d5e8d4;strokeColor=#82b366;" vertex="1" parent="1">
          <mxGeometry x="341.5" y="480" width="60" height="30" as="geometry" />
        </mxCell>
        <mxCell id="EQBirqDwtUEzLjIFXrc7-63" value="$$P_{0}$$" style="text;html=1;strokeColor=none;fillColor=none;align=center;verticalAlign=middle;whiteSpace=wrap;rounded=0;fontSize=14;" vertex="1" parent="1">
          <mxGeometry x="160" y="550" width="40" height="40" as="geometry" />
        </mxCell>
        <mxCell id="EQBirqDwtUEzLjIFXrc7-64" value="$$P_{1}$$" style="text;html=1;strokeColor=none;fillColor=none;align=center;verticalAlign=middle;whiteSpace=wrap;rounded=0;fontSize=14;" vertex="1" parent="1">
          <mxGeometry x="200" y="550" width="40" height="40" as="geometry" />
        </mxCell>
        <mxCell id="EQBirqDwtUEzLjIFXrc7-65" value="$$P_{2}$$" style="text;html=1;strokeColor=none;fillColor=none;align=center;verticalAlign=middle;whiteSpace=wrap;rounded=0;fontSize=14;" vertex="1" parent="1">
          <mxGeometry x="240" y="550" width="40" height="40" as="geometry" />
        </mxCell>
        <mxCell id="EQBirqDwtUEzLjIFXrc7-66" value="$$P_{3}$$" style="text;html=1;strokeColor=none;fillColor=none;align=center;verticalAlign=middle;whiteSpace=wrap;rounded=0;fontSize=14;" vertex="1" parent="1">
          <mxGeometry x="280" y="550" width="40" height="40" as="geometry" />
        </mxCell>
      </root>
    </mxGraphModel>
  </diagram>
</mxfile>
